<svg width="24" height="25" viewBox="0 0 24 25" fill="none" xmlns="http://www.w3.org/2000/svg">
<path d="M10.8 18.5H13.2V11.3H10.8V18.5ZM12 8.9C12.34 8.9 12.6252 8.7848 12.8556 8.5544C13.0852 8.3248 13.2 8.04 13.2 7.7C13.2 7.36 13.0852 7.0748 12.8556 6.8444C12.6252 6.6148 12.34 6.5 12 6.5C11.66 6.5 11.3752 6.6148 11.1456 6.8444C10.9152 7.0748 10.8 7.36 10.8 7.7C10.8 8.04 10.9152 8.3248 11.1456 8.5544C11.3752 8.7848 11.66 8.9 12 8.9ZM12 24.5C10.34 24.5 8.78 24.1848 7.32 23.5544C5.86 22.9248 4.59 22.07 3.51 20.99C2.43 19.91 1.5752 18.64 0.9456 17.18C0.3152 15.72 0 14.16 0 12.5C0 10.84 0.3152 9.28 0.9456 7.82C1.5752 6.36 2.43 5.09 3.51 4.01C4.59 2.93 5.86 2.0748 7.32 1.4444C8.78 0.8148 10.34 0.5 12 0.5C13.66 0.5 15.22 0.8148 16.68 1.4444C18.14 2.0748 19.41 2.93 20.49 4.01C21.57 5.09 22.4248 6.36 23.0544 7.82C23.6848 9.28 24 10.84 24 12.5C24 14.16 23.6848 15.72 23.0544 17.18C22.4248 18.64 21.57 19.91 20.49 20.99C19.41 22.07 18.14 22.9248 16.68 23.5544C15.22 24.1848 13.66 24.5 12 24.5ZM12 22.1C14.68 22.1 16.95 21.17 18.81 19.31C20.67 17.45 21.6 15.18 21.6 12.5C21.6 9.82 20.67 7.55 18.81 5.69C16.95 3.83 14.68 2.9 12 2.9C9.32 2.9 7.05 3.83 5.19 5.69C3.33 7.55 2.4 9.82 2.4 12.5C2.4 15.18 3.33 17.45 5.19 19.31C7.05 21.17 9.32 22.1 12 22.1Z" fill="black"/>
</svg>
